<svg width="44" height="32" viewBox="0 0 44 32" fill="none" xmlns="http://www.w3.org/2000/svg">
<path fill-rule="evenodd" clip-rule="evenodd" d="M13 6H42.5796L35 20H20.3374L13 6Z" stroke="white" stroke-linecap="round" stroke-linejoin="round"/>
<path d="M1 1H10.2485L13 6" stroke="white" stroke-linecap="round" stroke-linejoin="round"/>
<path fill-rule="evenodd" clip-rule="evenodd" d="M21.5 32C22.8807 32 24 30.8807 24 29.5C24 28.1193 22.8807 27 21.5 27C20.1193 27 19 28.1193 19 29.5C19 30.8807 20.1193 32 21.5 32Z" fill="white"/>
<path fill-rule="evenodd" clip-rule="evenodd" d="M34.5 32C35.8807 32 37 30.8807 37 29.5C37 28.1193 35.8807 27 34.5 27C33.1193 27 32 28.1193 32 29.5C32 30.8807 33.1193 32 34.5 32Z" fill="white"/>
</svg>
