<svg width="15" height="16" viewBox="0 0 15 16" fill="none" xmlns="http://www.w3.org/2000/svg">
<path fill-rule="evenodd" clip-rule="evenodd" d="M13.6111 11.5055C12.5955 10.6025 10.8543 9.94147 9.50612 9.95647C9.10231 10.2585 8.30446 11.1115 8.01833 11.5225C7.25612 11.2615 6.42507 10.4295 5.69021 9.53547C4.95437 8.64047 4.2991 7.66547 4.18923 6.86647C4.64821 6.66547 5.6404 6.04747 6.01345 5.70947C6.28933 4.38947 5.97634 2.55347 5.2864 1.38247C4.48708 1.24847 2.55837 1.28847 1.16433 1.92147C0.592062 3.62147 0.401152 7.45447 3.58913 11.4855C6.92946 15.3935 10.7761 15.3855 12.5545 15.1535C13.4451 13.9085 13.5882 12.3165 13.6111 11.5055Z" stroke="#001E42" stroke-width="0.892304"/>
</svg>
