<svg width="32" height="26" viewBox="0 0 32 26" fill="none" xmlns="http://www.w3.org/2000/svg">
<path fill-rule="evenodd" clip-rule="evenodd" d="M24.8701 25.7319C28.8081 25.7319 32 22.54 32 18.603C32 14.7241 28.9019 11.571 25.0459 11.477C24.6172 8.19311 26.3579 5.00293 29.4072 1.87207L27.2471 0.455078C19.3589 5.76612 17.7402 12.0979 17.7402 18.603C17.7402 22.54 20.9321 25.7319 24.8701 25.7319H24.8701Z" fill="#001E42"/>
<path fill-rule="evenodd" clip-rule="evenodd" d="M7.12989 25.7319C11.0679 25.7319 14.2598 22.54 14.2598 18.603C14.2598 14.7241 11.1621 11.571 7.30616 11.477C6.87696 8.19311 8.61817 5.00293 11.667 1.87207L9.50684 0.455078C1.61817 5.76612 0 12.0979 0 18.603C0 22.54 3.19189 25.7319 7.12988 25.7319H7.12989Z" fill="#001E42"/>
</svg>
